<svg width="245" height="245" viewBox="0 0 245 245" fill="none" xmlns="http://www.w3.org/2000/svg">
<rect x="163.5" y="3" width="76.5" height="76.5" rx="4.5" stroke="#7C5CFC" stroke-width="3"/>
<circle cx="48" cy="42" r="42" fill="#7C5CFC"/>
<mask id="mask0_2_8525" style="mask-type:alpha" maskUnits="userSpaceOnUse" x="6" y="150" width="83" height="71">
<path d="M47.25 150L88.1697 220.875H6.3303L47.25 150Z" fill="#D9D9D9"/>
</mask>
<g mask="url(#mask0_2_8525)">
<line x1="0.950917" y1="213.69" x2="55.1051" y2="155.487" stroke="#B9AEFF" stroke-width="1.5"/>
<line x1="8.63842" y1="220.842" x2="62.7926" y2="162.639" stroke="#B9AEFF" stroke-width="1.5"/>
<line x1="16.3259" y1="227.996" x2="70.4801" y2="169.793" stroke="#B9AEFF" stroke-width="1.5"/>
<line x1="24.0115" y1="235.147" x2="78.1657" y2="176.944" stroke="#B9AEFF" stroke-width="1.5"/>
<line x1="31.699" y1="242.299" x2="85.8532" y2="184.096" stroke="#B9AEFF" stroke-width="1.5"/>
<line x1="39.3865" y1="249.453" x2="93.5407" y2="191.25" stroke="#B9AEFF" stroke-width="1.5"/>
<line x1="47.073" y1="256.604" x2="101.227" y2="198.402" stroke="#B9AEFF" stroke-width="1.5"/>
<line x1="54.7605" y1="263.759" x2="108.915" y2="205.556" stroke="#B9AEFF" stroke-width="1.5"/>
</g>
<path d="M86.2207 219.75H8.2793L47.25 152.25L86.2207 219.75Z" stroke="#7C5CFC" stroke-width="2.25"/>
<path d="M211.005 158.438L214.707 160.612H214.708L214.138 161.582L217.84 163.758L218.409 162.787L222.112 164.962V164.963L221.543 165.933L225.245 168.107L225.814 167.138V167.137L229.517 169.312V169.312L228.947 170.282L232.649 172.457L233.219 171.487V171.486L236.921 173.662L236.352 174.633L237.647 175.393V176.925H238.772V181.275H237.647V185.625H238.772V189.975H237.647V194.325H238.772V198.675H237.647V203.025H238.772V207.375H237.647V211.725H238.772V216.075H237.647V217.606L236.352 218.367L236.921 219.337L233.219 221.513L232.649 220.543L228.947 222.718L229.517 223.688L225.814 225.862L225.245 224.893L221.543 227.067L222.112 228.037L218.409 230.212L217.84 229.242L214.138 231.418L214.707 232.387L211.005 234.562L210.436 233.593L206.733 235.768L207.303 236.736L203.602 238.912L203.031 237.942L201.75 238.694L200.469 237.942L199.897 238.912L196.196 236.736L196.767 235.768L193.064 233.593L192.494 234.562L188.792 232.387L189.362 231.418L185.66 229.242L185.09 230.212L181.387 228.037H181.388L181.957 227.067L178.255 224.893L177.685 225.862L173.982 223.688L174.553 222.718L170.851 220.543L170.28 221.513L166.578 219.337L167.148 218.367L165.853 217.606V216.075H164.728V211.725H165.853V207.375H164.728V203.025H165.853V198.675H164.728V194.325H165.853V189.975H164.728V185.625H165.853V181.275H164.728V176.925H165.853V175.393L167.148 174.633L166.578 173.662L170.28 171.486L170.281 171.487L170.851 172.457L174.553 170.282L173.983 169.312L173.982 169.312L177.685 167.137L177.686 167.138L178.255 168.107L181.957 165.933L181.388 164.963L181.387 164.962L185.09 162.787L185.66 163.758L189.362 161.582L188.792 160.612L192.494 158.438L193.064 159.407L196.767 157.232L196.196 156.263L199.897 154.087L199.898 154.088L200.469 155.058L201.75 154.305L203.031 155.058L203.602 154.088V154.087L207.303 156.263H207.304L206.733 157.232L210.436 159.407L211.005 158.438Z" stroke="#7C5CFC" stroke-width="2.25" stroke-dasharray="4.5 4.5"/>
<rect x="48.75" y="42.75" width="153" height="153" stroke="#D8D2FF" stroke-width="1.5" stroke-dasharray="3 3"/>
</svg>

