<svg width="30" height="31" viewBox="0 0 30 31" fill="none" xmlns="http://www.w3.org/2000/svg">
<path d="M22.4937 3.11933C23.1938 3.11555 23.8845 3.28015 24.5081 3.59934C25.1317 3.91847 25.6699 4.38294 26.0778 4.95375C26.4857 5.52456 26.7513 6.18512 26.8524 6.88013C26.9535 7.5751 26.8872 8.2843 26.6589 8.94828C26.4653 9.58096 26.1189 10.156 25.6508 10.6222C25.235 11.0418 24.7387 11.3723 24.192 11.5938C23.6452 11.8153 23.0593 11.9231 22.4698 11.9108C21.8115 11.9023 21.1635 11.7459 20.5734 11.453C19.7208 11.0383 19.0288 10.3523 18.605 9.50203C19.4192 8.93328 20.0837 8.17484 20.5416 7.29178C20.9995 6.40867 21.2369 5.42732 21.2337 4.43189C21.231 4.07306 21.2028 3.71489 21.1496 3.36004C21.5807 3.20354 22.0353 3.12209 22.4937 3.11933Z" fill="#7C5CFC"/>
<path d="M15.0036 3.64583e-05C15.8256 0.00209897 16.6307 0.234307 17.3283 0.670452C18.0259 1.1066 18.5884 1.72937 18.9525 2.46876C19.2504 3.05914 19.4106 3.70979 19.4207 4.37145C19.4214 5.29757 19.1321 6.20054 18.5937 6.9528C18.0553 7.70507 17.295 8.26868 16.4201 8.56398C15.503 8.88517 14.5045 8.88517 13.5874 8.56398C13.804 7.40243 13.68 6.20281 13.2304 5.11063C12.7808 4.01841 12.025 3.08057 11.0547 2.41086C11.4268 1.68229 11.9927 1.07133 12.6898 0.645803C13.3868 0.220222 14.1877 -0.00328368 15.0036 3.64583e-05Z" fill="#7C5CFC"/>
<path d="M4.39317 4.40776C4.80261 3.99661 5.28931 3.67104 5.82496 3.4499C6.36066 3.22871 6.93474 3.11633 7.514 3.11919C7.9926 3.11472 8.46814 3.19606 8.91827 3.3593C9.54889 3.55363 10.122 3.90104 10.5866 4.37083C11.0048 4.78791 11.3343 5.28583 11.555 5.83446C11.7757 6.38304 11.8832 6.97085 11.8709 7.56234C11.8625 8.22259 11.7067 8.87249 11.415 9.46443C10.9937 10.3365 10.2918 11.0407 9.42263 11.4634C8.85579 10.6464 8.0998 9.9797 7.21966 9.52032C6.33948 9.06098 5.36134 8.82268 4.36923 8.82595C4.01161 8.82872 3.65459 8.85689 3.30095 8.91032C3.04947 8.13169 3.01844 7.29834 3.21131 6.50307C3.40417 5.70784 3.81331 4.98189 4.39317 4.40625V4.40776Z" fill="#7C5CFC"/>
<path d="M0 15.0537C0.00211281 14.229 0.233516 13.4212 0.668203 12.7213C1.10289 12.0213 1.72365 11.457 2.46057 11.0917C3.04899 10.7927 3.69747 10.6321 4.35692 10.6219C5.28002 10.6212 6.17998 10.9115 6.92978 11.4516C7.67957 11.9918 8.24128 12.7547 8.53562 13.6325C8.85576 14.5526 8.85576 15.5545 8.53562 16.4746C7.38695 16.2662 6.20272 16.3952 5.12538 16.846C4.04805 17.2968 3.12344 18.0503 2.46269 19.0157C1.72531 18.6507 1.10415 18.0865 0.669108 17.3865C0.234019 16.6865 0.00226373 15.8786 0 15.0537Z" fill="#7C5CFC"/>
<path d="M4.39304 25.6997C3.81478 25.1157 3.41063 24.3811 3.22611 23.579C3.04159 22.7768 3.08405 21.9389 3.34865 21.1596C3.54233 20.5269 3.88863 19.9519 4.35682 19.4857C5.18761 18.6609 6.30891 18.1979 7.47764 18.1971H7.53751C8.19545 18.2056 8.84313 18.362 9.43295 18.6546C9.8772 18.8612 10.2831 19.1422 10.6332 19.4857C10.98 19.8336 11.2611 20.2417 11.4628 20.6902C10.6487 21.259 9.98425 22.0174 9.52652 22.9005C9.06874 23.7835 8.83135 24.7647 8.83462 25.7601C8.83739 26.1189 8.86546 26.4771 8.91873 26.8319C8.13433 27.0871 7.29433 27.1162 6.49428 26.9161C5.69418 26.716 4.96616 26.2945 4.39304 25.6997Z" fill="#7C5CFC"/>
<path d="M15.004 30.1075C14.182 30.1054 13.3769 29.8732 12.6793 29.4371C11.9817 29.0009 11.4192 28.3781 11.0551 27.6387C10.7571 27.0484 10.5971 26.3977 10.5869 25.7361V25.676C10.5865 24.7501 10.8758 23.8474 11.4142 23.0954C11.9526 22.3434 12.7128 21.78 13.5875 21.4847C14.5046 21.1635 15.5031 21.1635 16.4202 21.4847C16.2036 22.6463 16.3277 23.8459 16.7772 24.9381C17.2268 26.0303 17.9826 26.9681 18.9529 27.6378C18.5889 28.3775 18.0264 29.0004 17.3288 29.4368C16.631 29.8731 15.8261 30.1053 15.004 30.1075Z" fill="#7C5CFC"/>
<path d="M25.6144 25.6997C25.0323 26.2798 24.3002 26.6853 23.5007 26.8705C22.7012 27.0556 21.8661 27.013 21.0894 26.7475C20.4588 26.5532 19.8857 26.2057 19.421 25.736C19.0028 25.3189 18.6734 24.8209 18.4526 24.2724C18.2319 23.7238 18.1244 23.1359 18.1367 22.5444C18.1434 21.8708 18.3036 21.2076 18.6049 20.6055C18.8063 20.1572 19.0869 19.7492 19.4333 19.4013C19.7834 19.0579 20.1892 18.7769 20.6335 18.5704C21.2003 19.3874 21.9563 20.0542 22.8364 20.5135C23.7166 20.9729 24.6947 21.2112 25.6868 21.2079C26.0445 21.2052 26.4015 21.177 26.7552 21.1235C27.0152 21.9165 27.046 22.7672 26.8442 23.577C26.6423 24.3869 26.2159 25.1228 25.6144 25.6997Z" fill="#7C5CFC"/>
<path d="M27.5471 19.016C26.9587 19.3149 26.3102 19.4756 25.6507 19.4857H25.5909C24.668 19.4862 23.7683 19.1958 23.0187 18.6555C22.2692 18.1153 21.7076 17.3525 21.4134 16.4749C21.0933 15.5547 21.0933 14.5529 21.4134 13.6327C21.7699 13.6992 22.1312 13.7355 22.4937 13.7411C23.4876 13.7467 24.4677 13.5081 25.3485 13.0463C26.2294 12.5845 26.9842 11.9134 27.5471 11.0917C28.2835 11.4569 28.9034 12.0215 29.3369 12.7216C29.7703 13.4217 30 14.2295 30 15.0537C30 15.8779 29.7703 16.6856 29.3369 17.3857C28.9034 18.0858 28.2835 18.6507 27.5471 19.016Z" fill="#7C5CFC"/>
</svg>
